<?xml version="1.0" standalone="no"?>
<!DOCTYPE svg PUBLIC "-//W3C//DTD SVG 20010904//EN"
 "http://www.w3.org/TR/2001/REC-SVG-20010904/DTD/svg10.dtd">
<svg version="1.0" xmlns="http://www.w3.org/2000/svg"
 width="36.000000pt" height="42.000000pt" viewBox="0 0 36.000000 42.000000"
 preserveAspectRatio="xMidYMid meet">

<g transform="translate(0.000000,42.000000) scale(0.100000,-0.100000)"
fill="#000000" stroke="none">
<path d="M147 380 c-67 -12 -121 -66 -137 -136 -27 -118 93 -235 210 -204 47
13 95 51 117 93 20 39 20 115 0 154 -21 39 -71 81 -105 89 -15 3 -31 7 -37 8
-5 1 -27 -1 -48 -4z m53 -90 c8 -19 22 -32 39 -36 56 -12 58 -14 28 -40 -24
-21 -27 -29 -21 -59 7 -40 -6 -46 -44 -19 -21 14 -25 14 -47 0 -38 -25 -48
-21 -41 19 6 30 3 38 -21 59 -30 26 -28 28 29 40 17 4 29 16 36 36 14 38 26
38 42 0z"/>
</g>
</svg>
